<svg width="251" height="184" viewBox="0 0 251 184" fill="none" xmlns="http://www.w3.org/2000/svg">
<path d="M140.826 18.5465C123.991 28.341 109.486 37.3288 108.851 38.3659C107.792 39.8639 107.792 40.3248 108.851 41.1314C111.392 42.9751 116.05 41.938 121.768 38.4811L127.591 34.909L146.438 46.7776C183.919 70.3996 190.06 74.5478 189.425 75.5849C188.79 76.8524 172.59 85.8403 171.108 85.8403C170.472 85.8403 165.178 82.9596 159.249 79.3875C148.45 73.0499 144.32 72.0128 143.685 75.7001C143.261 77.8895 147.073 80.7702 160.308 88.4906L167.825 92.754V133.66C167.825 156.13 167.614 174.567 167.296 174.567C167.084 174.567 159.99 170.188 151.732 164.887C143.367 159.587 131.615 152.097 125.474 148.179C119.333 144.377 111.603 139.307 108.215 137.117L101.968 132.969L102.71 117.183C103.133 108.54 103.663 101.166 103.874 100.935C103.98 100.705 106.733 102.203 109.909 104.162C113.086 106.121 116.686 107.734 117.85 107.734C120.497 107.734 121.556 105.084 119.862 102.779C117.533 99.6678 77.4044 76.622 76.3456 77.7742C75.6045 78.5809 75.7103 80.5397 76.4515 83.5357C76.9809 86.0707 77.2985 88.2601 77.0868 88.6058C76.875 88.8362 75.3927 87.684 73.8045 86.186C70.9458 83.19 18.1119 35.0242 11.2298 29.0323C9.11219 27.1887 23.4059 42.8598 42.8877 63.8315C62.3695 84.8032 79.6279 102.779 81.2161 103.701C83.7572 105.199 84.1807 105.199 85.663 103.586C87.5688 101.511 87.7806 98.7459 86.4042 94.7129C84.9219 90.4494 85.9806 90.3342 91.3805 93.7911L96.3568 96.9023L96.8862 117.644L97.4156 138.27L117.533 151.175C157.873 177.102 166.661 182.518 169.202 183.209C172.59 184.131 176.084 182.518 193.872 171.456C201.919 166.501 217.271 156.937 227.965 150.484C238.553 143.916 247.976 137.463 248.823 136.08C250.2 134.121 250.411 126.516 250.411 89.8733V45.8558L248.082 43.5512C245.859 41.3618 195.778 10.7109 182.966 3.5667C179.896 1.95349 176.084 0.57074 174.496 0.57074C172.696 0.57074 159.143 7.83017 140.826 18.5465ZM200.542 22.1186C213.671 30.1846 227.541 38.5963 231.247 40.7857C234.953 43.0903 238.235 45.5101 238.447 46.0862C238.553 46.7776 234.318 49.7736 228.918 52.7695L219.177 58.4158L188.472 39.1725C171.637 28.5714 157.343 19.5835 156.92 19.0074C155.967 18.0856 172.59 7.59972 175.131 7.48448C175.872 7.48448 187.307 14.0525 200.542 22.1186ZM180.637 42.2837C198.107 53.1152 211.977 62.3335 211.554 62.7945C211.13 63.2554 207.848 65.3295 204.248 67.4036L197.789 71.2062L167.19 51.9629C150.355 41.3618 136.167 32.2588 135.744 31.7978C135.109 31.1065 146.65 22.6947 148.555 22.4643C148.767 22.4643 163.167 31.3369 180.637 42.2837ZM243.847 92.4083L243.529 132.508L219.495 147.373C206.26 155.554 195.778 162.813 196.095 163.389C196.413 164.081 196.201 164.196 195.566 163.735C194.931 163.274 190.166 165.579 184.978 168.805C179.684 171.916 175.237 174.567 174.813 174.567C174.496 174.567 174.178 156.13 174.178 133.66V92.754L182.966 87.9144C187.731 85.1489 191.966 82.8443 192.495 82.6139C192.919 82.3834 193.236 88.1449 193.236 95.5195C193.236 107.273 193.448 109.117 195.248 111.075C197.895 113.956 200.754 113.15 210.812 107.042C223.306 99.4373 222.883 100.359 222.989 81.9225C223.094 65.0991 223.412 62.7945 225.424 62.7945C226.059 62.6792 230.188 60.4899 234.529 57.7244C238.871 54.8437 242.788 52.5391 243.317 52.5391C243.741 52.4238 243.953 70.3996 243.847 92.4083ZM216.106 94.4825C215.577 95.9804 202.342 104.277 200.648 104.277C200.013 104.277 199.589 98.8612 199.589 91.1408V78.0047L207.848 73.3955L216.001 68.6712L216.318 81.0007C216.424 87.684 216.424 93.7911 216.106 94.4825Z" fill="#000D51"/>
<path d="M2.02199 7.94833C3.18667 8.87016 10.3865 13.3641 17.9039 17.858C25.5272 22.352 34.8446 28.1134 38.868 30.5332C42.7856 32.953 46.4914 34.6815 47.2325 34.2206C47.8678 33.7597 48.0795 33.8749 47.7619 34.451C47.0208 35.8338 61.2086 45.2826 64.0673 45.2826C66.3967 45.2826 66.8202 41.0191 64.9144 35.0272C64.2791 32.953 63.9615 30.9942 64.2791 30.6485C64.7026 30.3028 69.5731 32.953 75.2906 36.6404C107.69 57.3816 125.054 67.5218 127.066 66.7152C128.866 65.9086 128.971 62.106 127.277 60.4928C122.619 56.575 62.6909 21.0844 61.738 21.7758C60.891 22.2367 60.7851 22.1215 61.2086 21.3149C62.1615 19.7017 56.9734 17.1667 54.6441 18.2037C53.4794 18.6646 53.2676 20.0474 53.9029 24.0804C54.2206 27.0764 54.8558 30.1875 55.1735 30.9942C55.4911 31.916 55.1735 32.6074 54.5382 32.6074C53.9029 32.6074 41.7268 26.6154 27.4331 19.356C13.1393 12.0966 1.06908 6.10467 0.64556 6.10467C0.222042 6.10467 0.857319 7.0265 2.02199 7.94833Z" fill="#000D51"/>
<path d="M76.0314 52.7724C75.7138 53.6942 75.7138 54.8465 76.0314 55.5379C77.1961 57.4967 102.395 71.7852 104.831 71.7852C107.795 71.7852 108.748 69.0197 106.525 66.8303C103.031 63.4887 81.4313 51.0439 78.9961 51.0439C77.7255 51.0439 76.3491 51.8505 76.0314 52.7724Z" fill="#000D51"/>
<path d="M115.101 85.267C114.36 85.4974 113.725 86.7649 113.725 88.0325C113.725 89.6457 116.054 91.4893 122.195 94.831C131.406 99.9011 132.995 100.247 134.795 97.8269C136.489 95.6376 134.265 93.333 125.265 88.4934C117.854 84.3451 117.325 84.2299 115.101 85.267Z" fill="#000D51"/>
</svg>
