<svg width="183" height="53" viewBox="0 0 183 53" fill="none" xmlns="http://www.w3.org/2000/svg">
<path d="M58.0372 20.8967V6.19665H64.6312C66.3252 6.19665 67.6272 6.53965 68.5372 7.22565C69.4472 7.89765 69.9022 8.82165 69.9022 9.99765C69.9022 10.7957 69.7202 11.4677 69.3562 12.0137C69.0062 12.5597 68.5302 12.9797 67.9282 13.2737C67.3262 13.5677 66.6752 13.7147 65.9752 13.7147L66.3532 13.0847C67.1932 13.0847 67.9352 13.2317 68.5792 13.5257C69.2232 13.8197 69.7342 14.2537 70.1122 14.8277C70.4902 15.3877 70.6792 16.0877 70.6792 16.9277C70.6792 18.1877 70.2032 19.1677 69.2512 19.8677C68.3132 20.5537 66.9132 20.8967 65.0512 20.8967H58.0372ZM60.1372 19.1957H64.9672C66.1292 19.1957 67.0182 18.9997 67.6342 18.6077C68.2502 18.2157 68.5582 17.5997 68.5582 16.7597C68.5582 15.9057 68.2502 15.2827 67.6342 14.8907C67.0182 14.4987 66.1292 14.3027 64.9672 14.3027H59.9482V12.6017H64.4422C65.5062 12.6017 66.3322 12.4057 66.9202 12.0137C67.5082 11.6217 67.8022 11.0337 67.8022 10.2497C67.8022 9.46565 67.5082 8.87765 66.9202 8.48565C66.3322 8.09365 65.5062 7.89765 64.4422 7.89765H60.1372V19.1957ZM71.7048 20.8967L78.3618 6.19665H80.4408L87.1188 20.8967H84.9138L78.9708 7.37265H79.8108L73.8678 20.8967H71.7048ZM74.5398 17.2217L75.1068 15.5417H83.3808L83.9898 17.2217H74.5398ZM89.3117 20.8967V6.19665H95.0447C96.3327 6.19665 97.4317 6.39965 98.3417 6.80565C99.2517 7.21165 99.9517 7.79965 100.442 8.56965C100.932 9.33965 101.177 10.2567 101.177 11.3207C101.177 12.3847 100.932 13.3017 100.442 14.0717C99.9517 14.8277 99.2517 15.4087 98.3417 15.8147C97.4317 16.2207 96.3327 16.4237 95.0447 16.4237H90.4667L91.4117 15.4577V20.8967H89.3117ZM99.1397 20.8967L95.4017 15.5627H97.6487L101.429 20.8967H99.1397ZM91.4117 15.6677L90.4667 14.6387H94.9817C96.3257 14.6387 97.3407 14.3517 98.0267 13.7777C98.7267 13.1897 99.0767 12.3707 99.0767 11.3207C99.0767 10.2707 98.7267 9.45865 98.0267 8.88465C97.3407 8.31065 96.3257 8.02365 94.9817 8.02365H90.4667L91.4117 6.97365V15.6677ZM102.343 20.8967L109 6.19665H111.079L117.757 20.8967H115.552L109.609 7.37265H110.449L104.506 20.8967H102.343ZM105.178 17.2217L105.745 15.5417H114.019L114.628 17.2217H105.178ZM126.381 21.0647C125.261 21.0647 124.218 20.8757 123.252 20.4977C122.3 20.1197 121.474 19.5947 120.774 18.9227C120.074 18.2367 119.528 17.4387 119.136 16.5287C118.744 15.6187 118.548 14.6247 118.548 13.5467C118.548 12.4687 118.744 11.4747 119.136 10.5647C119.528 9.65465 120.074 8.86365 120.774 8.19165C121.474 7.50565 122.3 6.97365 123.252 6.59565C124.204 6.21765 125.247 6.02865 126.381 6.02865C127.501 6.02865 128.53 6.21765 129.468 6.59565C130.42 6.95965 131.246 7.48465 131.946 8.17065C132.66 8.84265 133.206 9.63365 133.584 10.5437C133.976 11.4537 134.172 12.4547 134.172 13.5467C134.172 14.6387 133.976 15.6397 133.584 16.5497C133.206 17.4597 132.66 18.2577 131.946 18.9437C131.246 19.6157 130.42 20.1407 129.468 20.5187C128.53 20.8827 127.501 21.0647 126.381 21.0647ZM131.19 23.9627C130.7 23.9627 130.231 23.8997 129.783 23.7737C129.335 23.6617 128.887 23.4727 128.439 23.2067C127.991 22.9547 127.529 22.6187 127.053 22.1987C126.577 21.7927 126.059 21.2887 125.499 20.6867L127.746 20.0987C128.166 20.6167 128.565 21.0367 128.943 21.3587C129.335 21.6947 129.72 21.9327 130.098 22.0727C130.476 22.2267 130.847 22.3037 131.211 22.3037C132.261 22.3037 133.157 21.8837 133.899 21.0437L134.886 22.2407C133.934 23.3887 132.702 23.9627 131.19 23.9627ZM126.381 19.1957C127.193 19.1957 127.942 19.0557 128.628 18.7757C129.328 18.4957 129.93 18.0967 130.434 17.5787C130.952 17.0607 131.351 16.4587 131.631 15.7727C131.925 15.0867 132.072 14.3447 132.072 13.5467C132.072 12.7347 131.925 11.9857 131.631 11.2997C131.351 10.6137 130.952 10.0187 130.434 9.51465C129.93 8.99665 129.328 8.59765 128.628 8.31765C127.942 8.03765 127.193 7.89765 126.381 7.89765C125.555 7.89765 124.792 8.03765 124.092 8.31765C123.406 8.59765 122.804 8.99665 122.286 9.51465C121.768 10.0187 121.362 10.6137 121.068 11.2997C120.788 11.9857 120.648 12.7347 120.648 13.5467C120.648 14.3447 120.788 15.0867 121.068 15.7727C121.362 16.4587 121.768 17.0607 122.286 17.5787C122.804 18.0967 123.406 18.4957 124.092 18.7757C124.792 19.0557 125.555 19.1957 126.381 19.1957Z" fill="#F1B900"/>
<path d="M55.3601 45.8132L62.0171 31.1132H64.0961L70.7741 45.8132H68.5691L62.6261 32.2892H63.4661L57.5231 45.8132H55.3601ZM58.1951 42.1382L58.7621 40.4582H67.0361L67.6451 42.1382H58.1951ZM72.967 45.8132V31.1132H75.067V43.9862H83.026V45.8132H72.967ZM89.5762 45.9812C88.4562 45.9812 87.3852 45.8132 86.3632 45.4772C85.3412 45.1272 84.5362 44.6792 83.9482 44.1332L84.7252 42.4952C85.2852 42.9852 85.9992 43.3912 86.8672 43.7132C87.7352 44.0352 88.6382 44.1962 89.5762 44.1962C90.4302 44.1962 91.1232 44.0982 91.6552 43.9022C92.1872 43.7062 92.5792 43.4402 92.8312 43.1042C93.0832 42.7542 93.2092 42.3622 93.2092 41.9282C93.2092 41.4242 93.0412 41.0182 92.7052 40.7102C92.3832 40.4022 91.9562 40.1572 91.4242 39.9752C90.9062 39.7792 90.3322 39.6112 89.7022 39.4712C89.0722 39.3312 88.4352 39.1702 87.7912 38.9882C87.1612 38.7922 86.5802 38.5472 86.0482 38.2532C85.5302 37.9592 85.1102 37.5672 84.7882 37.0772C84.4662 36.5732 84.3052 35.9292 84.3052 35.1452C84.3052 34.3892 84.5012 33.6962 84.8932 33.0662C85.2992 32.4222 85.9152 31.9112 86.7412 31.5332C87.5812 31.1412 88.6452 30.9452 89.9332 30.9452C90.7872 30.9452 91.6342 31.0572 92.4742 31.2812C93.3142 31.5052 94.0422 31.8272 94.6582 32.2472L93.9652 33.9272C93.3352 33.5072 92.6702 33.2062 91.9702 33.0242C91.2702 32.8282 90.5912 32.7302 89.9332 32.7302C89.1072 32.7302 88.4282 32.8352 87.8962 33.0452C87.3642 33.2552 86.9722 33.5352 86.7202 33.8852C86.4822 34.2352 86.3632 34.6272 86.3632 35.0612C86.3632 35.5792 86.5242 35.9922 86.8462 36.3002C87.1822 36.6082 87.6092 36.8532 88.1272 37.0352C88.6592 37.2172 89.2402 37.3852 89.8702 37.5392C90.5002 37.6792 91.1302 37.8402 91.7602 38.0222C92.4042 38.2042 92.9852 38.4422 93.5032 38.7362C94.0352 39.0302 94.4622 39.4222 94.7842 39.9122C95.1062 40.4022 95.2672 41.0322 95.2672 41.8022C95.2672 42.5442 95.0642 43.2372 94.6582 43.8812C94.2522 44.5112 93.6222 45.0222 92.7682 45.4142C91.9282 45.7922 90.8642 45.9812 89.5762 45.9812ZM96.1092 45.8132L102.766 31.1132H104.845L111.523 45.8132H109.318L103.375 32.2892H104.215L98.2722 45.8132H96.1092ZM98.9442 42.1382L99.5112 40.4582H107.785L108.394 42.1382H98.9442ZM124.258 31.1132H126.358V45.8132H124.258V31.1132ZM115.816 45.8132H113.716V31.1132H115.816V45.8132ZM124.447 39.2612H115.606V37.4342H124.447V39.2612ZM128.532 45.8132L135.189 31.1132H137.268L143.946 45.8132H141.741L135.798 32.2892H136.638L130.695 45.8132H128.532ZM131.367 42.1382L131.934 40.4582H140.208L140.817 42.1382H131.367ZM146.139 45.8132V31.1132H152.733C154.427 31.1132 155.729 31.4562 156.639 32.1422C157.549 32.8142 158.004 33.7382 158.004 34.9142C158.004 35.7122 157.822 36.3842 157.458 36.9302C157.108 37.4762 156.632 37.8962 156.03 38.1902C155.428 38.4842 154.777 38.6312 154.077 38.6312L154.455 38.0012C155.295 38.0012 156.037 38.1482 156.681 38.4422C157.325 38.7362 157.836 39.1702 158.214 39.7442C158.592 40.3042 158.781 41.0042 158.781 41.8442C158.781 43.1042 158.305 44.0842 157.353 44.7842C156.415 45.4702 155.015 45.8132 153.153 45.8132H146.139ZM148.239 44.1122H153.069C154.231 44.1122 155.12 43.9162 155.736 43.5242C156.352 43.1322 156.66 42.5162 156.66 41.6762C156.66 40.8222 156.352 40.1992 155.736 39.8072C155.12 39.4152 154.231 39.2192 153.069 39.2192H148.05V37.5182H152.544C153.608 37.5182 154.434 37.3222 155.022 36.9302C155.61 36.5382 155.904 35.9502 155.904 35.1662C155.904 34.3822 155.61 33.7942 155.022 33.4022C154.434 33.0102 153.608 32.8142 152.544 32.8142H148.239V44.1122Z" fill="#F1B900"/>
<path d="M24.2855 7.584C21.1847 10.2757 18.5131 12.7457 18.396 13.0307C18.201 13.4424 18.201 13.5691 18.396 13.7907C18.8641 14.2974 19.7221 14.0124 20.7752 13.0624L21.8478 12.0807L25.319 15.3424C32.2225 21.8341 33.3536 22.9741 33.2366 23.2591C33.1196 23.6075 30.1359 26.0775 29.8629 26.0775C29.7459 26.0775 28.7708 25.2858 27.6787 24.3041C25.6896 22.5624 24.929 22.2774 24.812 23.2908C24.734 23.8925 25.4361 24.6841 27.8737 26.8058L29.2583 27.9775V39.2192C29.2583 45.3943 29.2193 50.461 29.1608 50.461C29.1218 50.461 27.8152 49.2576 26.2941 47.801C24.7535 46.3443 22.5888 44.2859 21.4578 43.2093C20.3267 42.1643 18.9031 40.7709 18.279 40.1692L17.1285 39.0292L17.265 34.6909C17.343 32.3159 17.4405 30.2892 17.4795 30.2258C17.499 30.1625 18.006 30.5742 18.5911 31.1125C19.1761 31.6508 19.8391 32.0942 20.0537 32.0942C20.5412 32.0942 20.7362 31.3658 20.4242 30.7325C19.9952 29.8775 12.6041 23.5441 12.4091 23.8608C12.2726 24.0825 12.2921 24.6208 12.4286 25.4441C12.5261 26.1408 12.5846 26.7425 12.5456 26.8375C12.5066 26.9008 12.2336 26.5841 11.9411 26.1725C11.4145 25.3491 1.68335 12.1124 0.41576 10.4657C0.0257325 9.95902 2.65842 14.2657 6.24668 20.0291C9.83493 25.7925 13.0137 30.7325 13.3062 30.9858C13.7742 31.3975 13.8522 31.3975 14.1252 30.9542C14.4763 30.3842 14.5153 29.6242 14.2618 28.5158C13.9887 27.3442 14.1837 27.3125 15.1783 28.2625L16.0949 29.1175L16.1924 34.8175L16.2899 40.4859L19.9952 44.0326C27.4252 51.1577 29.0438 52.646 29.5118 52.836C30.1359 53.0893 30.7794 52.646 34.0557 49.606C35.5378 48.2443 38.3655 45.616 40.3351 43.8426C42.2853 42.0376 44.0209 40.2642 44.1769 39.8842C44.4304 39.3459 44.4694 37.2559 44.4694 27.1858V15.0891L44.0404 14.4557C43.6308 13.854 34.4067 5.43066 32.047 3.46731C31.4815 3.02397 30.7794 2.64397 30.4869 2.64397C30.1554 2.64397 27.6592 4.63898 24.2855 7.584ZM35.2843 8.56568C37.7024 10.7824 40.2571 13.094 40.9397 13.6957C41.6222 14.3291 42.2267 14.9941 42.2658 15.1524C42.2853 15.3424 41.5052 16.1657 40.5106 16.9891L38.7165 18.5408L33.0611 13.2524C29.9604 10.339 27.3277 7.86901 27.2497 7.71067C27.0742 7.45734 30.1359 4.57565 30.6039 4.54398C30.7404 4.54398 32.8466 6.34899 35.2843 8.56568ZM31.618 14.1074C34.8357 17.0841 37.3904 19.6174 37.3124 19.7441C37.2344 19.8708 36.6299 20.4408 35.9668 21.0108L34.7772 22.0558L29.1413 16.7674C26.0406 13.8541 23.4274 11.3524 23.3494 11.2257C23.2324 11.0357 25.358 8.72401 25.7091 8.66068C25.7481 8.66068 28.4003 11.099 31.618 14.1074ZM43.2603 27.8825L43.2018 38.9026L38.775 42.9876C36.3373 45.2359 34.4067 47.231 34.4652 47.3893C34.5237 47.5793 34.4847 47.611 34.3677 47.4843C34.2507 47.3576 33.3731 47.991 32.4175 48.8776C31.4425 49.7326 30.6234 50.461 30.5454 50.461C30.4869 50.461 30.4284 45.3943 30.4284 39.2192V27.9775L32.047 26.6475C32.9246 25.8875 33.7046 25.2541 33.8022 25.1908C33.8802 25.1275 33.9387 26.7108 33.9387 28.7375C33.9387 31.9675 33.9777 32.4742 34.3092 33.0125C34.7967 33.8042 35.3233 33.5825 37.1759 31.9042C39.4771 29.8142 39.399 30.0675 39.4186 25.0008C39.4381 20.3774 39.4966 19.7441 39.8671 19.7441C39.9841 19.7124 40.7446 19.1108 41.5442 18.3508C42.3438 17.5591 43.0653 16.9257 43.1628 16.9257C43.2408 16.8941 43.2798 21.8341 43.2603 27.8825ZM38.151 28.4525C38.0535 28.8642 35.6158 31.1442 35.3038 31.1442C35.1867 31.1442 35.1087 29.6558 35.1087 27.5342V23.9241L36.6299 22.6575L38.1315 21.3591L38.19 24.7475C38.2095 26.5841 38.2095 28.2625 38.151 28.4525Z" fill="#F1B900"/>
<path d="M0.643528 3.22611C0.849024 3.5169 2.11936 4.93446 3.44575 6.35202C4.79081 7.76958 6.43478 9.58697 7.14468 10.3503C7.83589 11.1136 8.48974 11.6588 8.62051 11.5134C8.7326 11.368 8.76996 11.4044 8.71392 11.5861C8.58315 12.0223 11.0865 15.0028 11.5909 15.0028C12.0019 15.0028 12.0766 13.6579 11.7403 11.7678C11.6282 11.1136 11.5722 10.4957 11.6282 10.3866C11.703 10.2776 12.5623 11.1136 13.5711 12.2767C19.2876 18.8193 22.3514 22.0179 22.7063 21.7635C23.0239 21.509 23.0426 20.3096 22.7437 19.8007C21.9217 18.5649 11.348 7.36976 11.1799 7.58785C11.0304 7.73324 11.0117 7.69689 11.0865 7.44245C11.2546 6.93359 10.3392 6.13394 9.92822 6.46106C9.72272 6.60646 9.68536 7.04263 9.79744 8.3148C9.85349 9.25984 9.96558 10.2412 10.0216 10.4957C10.0777 10.7864 10.0216 11.0045 9.90953 11.0045C9.79744 11.0045 7.64908 9.11445 5.12708 6.82454C2.60508 4.53463 0.475395 2.64455 0.400669 2.64455C0.325943 2.64455 0.438032 2.93533 0.643528 3.22611Z" fill="#F1B900"/>
<path d="M13.7022 17.3654C13.6461 17.6562 13.6461 18.0196 13.7022 18.2377C13.9077 18.8556 18.3539 23.3628 18.7835 23.3628C19.3066 23.3628 19.4748 22.4904 19.0825 21.7998C18.466 20.7457 14.6549 16.8202 14.2253 16.8202C14.0011 16.8202 13.7582 17.0746 13.7022 17.3654Z" fill="#F1B900"/>
<path d="M20.5954 27.6151C20.4646 27.6878 20.3525 28.0876 20.3525 28.4874C20.3525 28.9963 20.7635 29.5779 21.8471 30.632C23.4723 32.2313 23.7526 32.3403 24.0702 31.577C24.3691 30.8864 23.9767 30.1594 22.3888 28.6328C21.0811 27.3243 20.9877 27.288 20.5954 27.6151Z" fill="#F1B900"/>
</svg>
