<svg width="183" height="53" viewBox="0 0 183 53" fill="none" xmlns="http://www.w3.org/2000/svg">
<path d="M89.9968 4.29423C89.3108 4.29423 88.9678 3.94423 88.9678 3.24423C88.9678 2.55823 89.3108 2.21523 89.9968 2.21523C90.6688 2.21523 91.0048 2.55823 91.0048 3.24423C91.0048 3.94423 90.6688 4.29423 89.9968 4.29423ZM92.6638 4.29423C91.9778 4.29423 91.6348 3.94423 91.6348 3.24423C91.6348 2.55823 91.9778 2.21523 92.6638 2.21523C93.3358 2.21523 93.6718 2.55823 93.6718 3.24423C93.6718 3.94423 93.3358 4.29423 92.6638 4.29423ZM94.9108 14.6682C94.9108 16.3202 94.3088 17.6012 93.1048 18.5112C91.9988 19.3652 90.4868 19.7922 88.5688 19.7922C86.3568 19.7922 84.6908 19.1482 83.5708 17.8602C82.7448 16.9082 82.3318 15.7322 82.3318 14.3322C82.3318 13.1562 82.6258 12.1482 83.2138 11.3082L84.9568 10.9302C84.3268 11.9242 84.0118 12.9952 84.0118 14.1432C84.0118 15.3472 84.4178 16.3132 85.2298 17.0412C86.0278 17.7412 87.1408 18.0912 88.5688 18.0912C91.4528 18.0912 92.9438 17.0202 93.0418 14.8782C92.6218 15.2562 91.9848 15.4452 91.1308 15.4452C89.8988 15.4452 88.9188 14.9692 88.1908 14.0172C87.5888 13.2052 87.2878 12.2112 87.2878 11.0352C87.2878 9.55123 87.6868 8.38923 88.4848 7.54923C89.1988 6.79323 90.1368 6.41523 91.2988 6.41523C92.4888 6.41523 93.4058 6.78623 94.0498 7.52823C94.6238 8.18623 94.9108 9.04723 94.9108 10.1112V14.6682ZM93.1048 10.1952C93.1048 8.79523 92.5028 8.09523 91.2988 8.09523C90.6128 8.09523 90.0738 8.35423 89.6818 8.87223C89.2898 9.37623 89.0938 10.0832 89.0938 10.9932C89.0938 11.8892 89.2828 12.5962 89.6608 13.1142C90.0388 13.6322 90.5498 13.8912 91.1938 13.8912C92.1598 13.8912 92.7968 13.6252 93.1048 13.0932V10.1952ZM105 14.1012H106.386V15.8022H104.79C104.076 15.8022 103.46 15.6622 102.942 15.3822C102.816 16.7682 102.333 17.8742 101.493 18.7002C100.723 19.4562 99.7573 19.8342 98.5953 19.8342C97.7553 19.8342 96.9363 19.6242 96.1383 19.2042V17.6292C96.8523 18.0212 97.5663 18.2172 98.2803 18.2172C99.1763 18.2172 99.8763 17.9162 100.38 17.3142C100.884 16.7122 101.136 15.8792 101.136 14.8152V7.65423L102.942 6.68823V6.70923L102.963 6.68823V12.4212C103.089 13.5412 103.768 14.1012 105 14.1012ZM105.128 15.8022V14.1012H106.514C107.886 14.1012 108.572 13.4012 108.572 12.0012V7.65423L110.378 6.68823V12.0642C110.378 13.2542 110.021 14.1922 109.307 14.8782C108.649 15.4942 107.788 15.8022 106.724 15.8022H105.128ZM108.509 19.9812C107.823 19.9812 107.48 19.6312 107.48 18.9312C107.48 18.2452 107.823 17.9022 108.509 17.9022C109.181 17.9022 109.517 18.2452 109.517 18.9312C109.517 19.6312 109.181 19.9812 108.509 19.9812Z" fill="#F1B900"/>
<path d="M49.3128 42.9229C48.1788 42.9229 47.2898 42.5449 46.6458 41.7889C46.0858 41.1309 45.8058 40.2699 45.8058 39.2059V36.6649L47.6118 35.6989V39.0379C47.6118 40.4939 48.2908 41.2219 49.6488 41.2219H56.6208C57.9788 41.2219 58.6578 40.4939 58.6578 39.0379V34.7749L60.4638 33.8089V39.2059C60.4638 40.4239 60.0928 41.3689 59.3508 42.0409C58.6928 42.6289 57.8458 42.9229 56.8098 42.9229H49.3128ZM52.7778 47.1019C52.0918 47.1019 51.7488 46.7519 51.7488 46.0519C51.7488 45.3659 52.0918 45.0229 52.7778 45.0229C53.4498 45.0229 53.7858 45.3659 53.7858 46.0519C53.7858 46.7519 53.4498 47.1019 52.7778 47.1019ZM67.8963 42.9229C66.6783 42.9229 65.7403 42.5309 65.0823 41.7469C64.5223 41.0749 64.2423 40.2209 64.2423 39.1849V30.3439L66.0483 29.3779V39.1219C66.0483 40.5219 66.7343 41.2219 68.1063 41.2219H69.4923V42.9229H67.8963ZM81.9153 41.2219H83.2803V42.9229H81.8943C80.7603 42.9229 79.8503 42.7969 79.1643 42.5449C78.4783 42.2789 77.8413 41.8169 77.2533 41.1589C75.4893 42.3349 73.4313 42.9229 71.0793 42.9229H68.2233V41.2219H71.1003C73.9423 41.2219 76.1893 40.2839 77.8413 38.4079C76.6793 36.2659 75.2653 35.1949 73.5993 35.1949C72.4653 35.1949 71.2963 35.7969 70.0923 37.0009V35.3209C71.2683 34.1309 72.5143 33.5359 73.8303 33.5359C74.9083 33.5359 75.9513 33.9279 76.9593 34.7119C77.9673 35.4819 78.8563 36.5879 79.6263 38.0299V38.9539C79.1923 39.4999 78.7793 39.9409 78.3873 40.2769C79.1433 40.9069 80.3193 41.2219 81.9153 41.2219ZM82.0251 42.9229V41.2219H83.9151C85.2731 41.2219 85.9521 40.5219 85.9521 39.1219V36.1819L87.7581 35.2159V39.1219C87.7581 40.5219 88.4441 41.2219 89.8161 41.2219H90.7821C92.1541 41.2219 92.8401 40.5219 92.8401 39.1219V35.4679L94.6461 34.5229V39.1219C94.6461 40.5219 95.3251 41.2219 96.6831 41.2219H97.6701C99.0421 41.2219 99.7281 40.5219 99.7281 39.1219V34.7749L101.534 33.8089V38.9329C101.534 40.4589 102.262 41.2219 103.718 41.2219H105.461V42.9229H103.571C102.311 42.9229 101.352 42.4959 100.694 41.6419C100.106 42.4819 99.1891 42.9089 97.9431 42.9229H96.4941C95.2621 42.9229 94.3451 42.5099 93.7431 41.6839C93.1411 42.4959 92.2451 42.9089 91.0551 42.9229H89.6061C88.4021 42.9229 87.4851 42.5099 86.8551 41.6839C86.2531 42.5099 85.3361 42.9229 84.1041 42.9229H82.0251ZM104.194 42.9229V41.2219H105.307C106.763 41.2219 107.491 40.4589 107.491 38.9329V30.3439L109.318 29.3779V38.9539C109.318 40.1999 108.947 41.1869 108.205 41.9149C107.505 42.5869 106.588 42.9229 105.454 42.9229H104.194ZM113.092 42.9229V30.3439L114.898 29.3779V42.9229H113.092Z" fill="#F1B900"/>
<path d="M158.255 5.78342C154.506 8.49753 151.275 10.9881 151.134 11.2755C150.898 11.6906 150.898 11.8183 151.134 12.0418C151.7 12.5527 152.737 12.2654 154.011 11.3074L155.308 10.3176L159.505 13.6064C167.852 20.1522 169.22 21.3018 169.078 21.5891C168.937 21.9404 165.329 24.431 164.999 24.431C164.858 24.431 163.679 23.6327 162.358 22.6428C159.953 20.8867 159.033 20.5993 158.892 21.6211C158.798 22.2277 159.646 23.026 162.594 25.1654L164.268 26.3468V37.6822C164.268 43.9087 164.221 49.0176 164.15 49.0176C164.103 49.0176 162.523 47.8042 160.684 46.3354C158.821 44.8666 156.204 42.7911 154.836 41.7055C153.468 40.6518 151.747 39.2468 150.992 38.6401L149.601 37.4906L149.766 33.1161C149.861 30.7213 149.979 28.6777 150.026 28.6139C150.049 28.55 150.662 28.9651 151.37 29.5079C152.077 30.0508 152.879 30.4978 153.138 30.4978C153.728 30.4978 153.964 29.7634 153.586 29.1248C153.068 28.2626 144.131 21.8765 143.895 22.1958C143.73 22.4193 143.753 22.9621 143.918 23.7923C144.036 24.4948 144.107 25.1015 144.06 25.1973C144.013 25.2612 143.683 24.9419 143.329 24.5268C142.692 23.6966 130.926 10.3495 129.393 8.68912C128.921 8.17822 132.105 12.5208 136.443 18.3322C140.782 24.1436 144.626 29.1248 144.98 29.3802C145.545 29.7953 145.64 29.7953 145.97 29.3483C146.394 28.7735 146.442 28.0072 146.135 26.8896C145.805 25.7082 146.041 25.6763 147.243 26.6342L148.351 27.4963L148.469 33.2438L148.587 38.9594L153.068 42.5357C162.052 49.7201 164.009 51.2208 164.575 51.4124C165.329 51.6679 166.107 51.2208 170.069 48.1555C171.861 46.7825 175.28 44.1322 177.662 42.3441C180.02 40.524 182.118 38.7359 182.307 38.3528C182.614 37.8099 182.661 35.7025 182.661 25.5485V13.351L182.142 12.7124C181.647 12.1057 170.493 3.61213 167.64 1.63243C166.956 1.1854 166.107 0.802229 165.754 0.802229C165.353 0.802229 162.335 2.81386 158.255 5.78342ZM171.554 6.77327C174.478 9.00842 177.567 11.3394 178.393 11.946C179.218 12.5847 179.949 13.2552 179.996 13.4149C180.02 13.6064 179.077 14.4366 177.874 15.2668L175.705 16.8315L168.866 11.499C165.117 8.56139 161.934 6.0708 161.839 5.91115C161.627 5.6557 165.329 2.75 165.895 2.71807C166.06 2.71807 168.607 4.53812 171.554 6.77327ZM167.121 12.3612C171.012 15.3626 174.101 17.9171 174.007 18.0448C173.912 18.1725 173.181 18.7473 172.38 19.322L170.941 20.3758L164.127 15.0433C160.377 12.1057 157.218 9.58318 157.123 9.45546C156.982 9.26387 159.552 6.93293 159.977 6.86907C160.024 6.86907 163.231 9.32773 167.121 12.3612ZM181.199 26.251L181.128 37.3629L175.775 41.482C172.828 43.749 170.493 45.7607 170.564 45.9203C170.635 46.1119 170.588 46.1438 170.446 46.0161C170.305 45.8884 169.244 46.527 168.088 47.4211C166.909 48.2832 165.919 49.0176 165.824 49.0176C165.754 49.0176 165.683 43.9087 165.683 37.6822V26.3468L167.64 25.0057C168.701 24.2394 169.644 23.6008 169.762 23.5369C169.857 23.473 169.927 25.0696 169.927 27.1131C169.927 30.3701 169.975 30.881 170.375 31.4238C170.965 32.2221 171.602 31.9985 173.842 30.3062C176.624 28.1988 176.53 28.4542 176.553 23.3453C176.577 18.6834 176.648 18.0448 177.096 18.0448C177.237 18.0129 178.157 17.4062 179.124 16.6399C180.09 15.8416 180.963 15.203 181.081 15.203C181.175 15.1711 181.222 20.1522 181.199 26.251ZM175.021 26.8258C174.903 27.2409 171.955 29.5399 171.578 29.5399C171.437 29.5399 171.342 28.0391 171.342 25.8998V22.2597L173.181 20.9824L174.997 19.6733L175.068 23.0899C175.091 24.9419 175.091 26.6342 175.021 26.8258Z" fill="#F1B900"/>
<path d="M129.668 1.38922C129.917 1.68243 131.453 3.1118 133.057 4.54117C134.683 5.97054 136.671 7.80307 137.529 8.57273C138.365 9.3424 139.156 9.89215 139.314 9.74555C139.449 9.59895 139.495 9.6356 139.427 9.81885C139.269 10.2587 142.296 13.264 142.905 13.264C143.402 13.264 143.493 11.9079 143.086 10.0021C142.951 9.3424 142.883 8.71934 142.951 8.60938C143.041 8.49943 144.08 9.3424 145.3 10.5152C152.212 17.1123 155.917 20.3376 156.346 20.081C156.73 19.8245 156.752 18.615 156.391 18.1019C155.397 16.8558 142.612 5.56739 142.408 5.78729C142.228 5.93389 142.205 5.89724 142.296 5.64069C142.499 5.12758 141.392 4.32127 140.895 4.65112C140.647 4.79772 140.601 5.23753 140.737 6.5203C140.805 7.47322 140.94 8.46278 141.008 8.71934C141.076 9.01254 141.008 9.23244 140.872 9.23244C140.737 9.23244 138.139 7.32661 135.09 5.01763C132.04 2.70864 129.465 0.802812 129.375 0.802812C129.284 0.802812 129.42 1.09602 129.668 1.38922Z" fill="#F1B900"/>
<path d="M145.458 15.6463C145.39 15.9395 145.39 16.306 145.458 16.5259C145.707 17.149 151.083 21.6936 151.602 21.6936C152.235 21.6936 152.438 20.814 151.964 20.1177C151.218 19.0548 146.61 15.0965 146.091 15.0965C145.819 15.0965 145.526 15.3531 145.458 15.6463Z" fill="#F1B900"/>
<path d="M153.794 25.9814C153.636 26.0547 153.5 26.4579 153.5 26.861C153.5 27.3741 153.997 27.9605 155.307 29.0234C157.272 30.636 157.611 30.746 157.995 29.9763C158.357 29.2799 157.882 28.5469 155.962 27.0076C154.381 25.6882 154.268 25.6515 153.794 25.9814Z" fill="#F1B900"/>
</svg>
