<svg width="188" height="56" viewBox="0 0 188 56" fill="none" xmlns="http://www.w3.org/2000/svg">
<path d="M75.1387 21.3628V19.8238H76.6967V9.94377H75.1767V8.40477H79.7557V21.3628H75.1387ZM79.7557 21.3628V19.6908H82.7767C83.4861 19.6908 84.0497 19.5198 84.4677 19.1778C84.8857 18.8231 85.0947 18.3101 85.0947 17.6388C85.0947 16.9674 84.8857 16.4608 84.4677 16.1188C84.0497 15.7641 83.4861 15.5868 82.7767 15.5868H79.7557V14.5418H83.8027C85.1581 14.5418 86.2284 14.8078 87.0137 15.3398C87.7991 15.8591 88.1917 16.7014 88.1917 17.8668C88.1917 19.0574 87.7927 19.9378 86.9947 20.5078C86.2094 21.0778 85.1454 21.3628 83.8027 21.3628H79.7557ZM79.7557 14.8458V13.9338H82.2447C82.9287 13.9338 83.4671 13.7691 83.8597 13.4398C84.2524 13.1104 84.4487 12.6228 84.4487 11.9768C84.4487 11.3434 84.2524 10.8621 83.8597 10.5328C83.4671 10.2034 82.9287 10.0388 82.2447 10.0388H79.7557V8.40477H83.1757C84.4931 8.40477 85.5444 8.6771 86.3297 9.22177C87.1151 9.75377 87.5077 10.5771 87.5077 11.6918C87.5077 12.7811 87.1151 13.5791 86.3297 14.0858C85.5571 14.5924 84.5057 14.8458 83.1757 14.8458H79.7557ZM92.4596 14.9598C92.0163 14.9598 91.6173 14.8458 91.2626 14.6178C90.9206 14.3771 90.7496 14.0034 90.7496 13.4968C90.7496 13.0028 90.9586 12.5911 91.3766 12.2618C91.8073 11.9198 92.3646 11.6664 93.0486 11.5018C93.7326 11.3244 94.4546 11.2358 95.2146 11.2358C96.4813 11.2358 97.4566 11.4891 98.1406 11.9958C98.8246 12.5024 99.1603 13.2688 99.1476 14.2948L96.4116 13.9528C96.4116 13.4968 96.2469 13.1611 95.9176 12.9458C95.6009 12.7178 95.1576 12.6038 94.5876 12.6038C94.2203 12.6038 93.8656 12.6481 93.5236 12.7368C93.1943 12.8128 92.9156 12.9521 92.6876 13.1548C92.4723 13.3448 92.3393 13.6044 92.2886 13.9338L92.3266 12.6038C92.8206 12.6291 93.2133 12.7368 93.5046 12.9268C93.7959 13.1041 93.9353 13.3828 93.9226 13.7628C93.9099 14.1174 93.7769 14.4088 93.5236 14.6368C93.2703 14.8521 92.9156 14.9598 92.4596 14.9598ZM99.6796 21.5908C98.7043 21.5908 97.9633 21.3311 97.4566 20.8118C96.9499 20.2798 96.6966 19.5451 96.6966 18.6078V18.1898H96.3736V15.7958H96.2786L96.4116 14.8078V13.9528L99.1476 14.2948V18.8548C99.1476 19.1208 99.2109 19.3424 99.3376 19.5198C99.4769 19.6971 99.6796 19.7858 99.9456 19.7858C100.199 19.7858 100.389 19.6971 100.516 19.5198C100.655 19.3424 100.725 19.1208 100.725 18.8548V16.1188H102.568V18.6458C102.568 19.5578 102.327 20.2798 101.846 20.8118C101.364 21.3311 100.642 21.5908 99.6796 21.5908ZM93.2576 21.5718C92.2696 21.5718 91.4653 21.3311 90.8446 20.8498C90.2239 20.3684 89.9136 19.7161 89.9136 18.8928C89.9136 18.2974 90.0403 17.8034 90.2936 17.4108C90.5469 17.0181 90.9016 16.7014 91.3576 16.4608C91.8263 16.2074 92.3583 16.0111 92.9536 15.8718L94.6826 15.4538C95.0499 15.3778 95.3603 15.2764 95.6136 15.1498C95.8796 15.0231 96.0759 14.8648 96.2026 14.6748C96.3419 14.4848 96.4116 14.2441 96.4116 13.9528L96.4496 15.7958H96.3736C96.2723 16.0238 96.1076 16.2074 95.8796 16.3468C95.6643 16.4861 95.3856 16.6064 95.0436 16.7078L94.5116 16.8598C94.2076 16.9484 93.9289 17.0561 93.6756 17.1828C93.4349 17.2968 93.2449 17.4424 93.1056 17.6198C92.9663 17.7844 92.8966 18.0061 92.8966 18.2848C92.8966 18.6774 93.0359 18.9751 93.3146 19.1778C93.6059 19.3804 93.9796 19.4818 94.4356 19.4818C94.7649 19.4818 95.0753 19.4121 95.3666 19.2728C95.6706 19.1334 95.9113 18.8991 96.0886 18.5698C96.2786 18.2404 96.3736 17.7971 96.3736 17.2398L97.0196 17.2968C97.0196 18.3228 96.8486 19.1524 96.5066 19.7858C96.1773 20.4064 95.7213 20.8624 95.1386 21.1538C94.5686 21.4324 93.9416 21.5718 93.2576 21.5718ZM103.603 21.3628V19.8428H105.085V12.9458H103.755V11.4258H107.669V14.8078L107.992 14.7508V19.8428H110.101V21.3628H103.603ZM107.137 15.2448C107.163 14.2314 107.346 13.4271 107.688 12.8318C108.03 12.2364 108.48 11.8121 109.037 11.5588C109.595 11.2928 110.196 11.1598 110.842 11.1598C111.564 11.1471 112.147 11.3308 112.59 11.7108C113.046 12.0781 113.274 12.5531 113.274 13.1358C113.274 13.6171 113.122 14.0098 112.818 14.3138C112.514 14.6178 112.109 14.7698 111.602 14.7698C111.159 14.7698 110.798 14.6494 110.519 14.4088C110.253 14.1681 110.12 13.8641 110.12 13.4968C110.12 13.0534 110.26 12.7178 110.538 12.4898C110.83 12.2618 111.286 12.1668 111.906 12.2048L111.716 13.1738C111.666 12.9331 111.526 12.7494 111.298 12.6228C111.07 12.4834 110.773 12.4138 110.405 12.4138C110 12.4138 109.607 12.5151 109.227 12.7178C108.86 12.9204 108.562 13.2308 108.334 13.6488C108.106 14.0668 107.992 14.5988 107.992 15.2448H107.137ZM119.078 21.5528C118.192 21.5528 117.406 21.3564 116.722 20.9638C116.038 20.5584 115.5 19.9694 115.107 19.1968C114.727 18.4241 114.537 17.4868 114.537 16.3848C114.537 15.2828 114.727 14.3518 115.107 13.5918C115.5 12.8191 116.038 12.2301 116.722 11.8248C117.406 11.4194 118.198 11.2168 119.097 11.2168C120.035 11.2168 120.801 11.4321 121.396 11.8628C121.992 12.2808 122.429 12.8761 122.707 13.6488C122.999 14.4214 123.144 15.3334 123.144 16.3848L122.935 16.4038C122.935 17.4678 122.809 18.3861 122.555 19.1588C122.315 19.9314 121.909 20.5268 121.339 20.9448C120.769 21.3501 120.016 21.5528 119.078 21.5528ZM120.123 19.6908C120.63 19.6908 121.067 19.5641 121.434 19.3108C121.802 19.0574 122.08 18.6838 122.27 18.1898C122.473 17.6958 122.574 17.0941 122.574 16.3848C122.574 15.6754 122.473 15.0801 122.27 14.5988C122.08 14.1048 121.802 13.7311 121.434 13.4778C121.067 13.2244 120.63 13.0978 120.123 13.0978C119.629 13.0978 119.199 13.2244 118.831 13.4778C118.464 13.7311 118.179 14.1048 117.976 14.5988C117.786 15.0801 117.691 15.6754 117.691 16.3848C117.691 17.0941 117.786 17.6958 117.976 18.1898C118.179 18.6838 118.464 19.0574 118.831 19.3108C119.199 19.5641 119.629 19.6908 120.123 19.6908ZM120.769 24.9728V23.4338H122.441V18.4938L122.764 16.3848L122.669 14.9028V11.4258H125.367V23.4338H126.678V24.9728H120.769ZM132.487 21.3628V19.8238H133.741L138.586 8.38577H141.398L146.262 19.8238H147.497V21.3628H140.999V19.8238H142.975L138.928 10.1148H139.916L135.812 19.8238H137.75V21.3628H132.487ZM136.344 17.5628V15.9098H142.557V17.5628H136.344ZM148.579 21.3628V19.8428H149.985V9.24077H148.693V7.72077H152.911V19.8428H154.222V21.3628H148.579ZM82.6247 44.5908C81.6747 44.5908 80.7881 44.4451 79.9647 44.1538C79.1541 43.8498 78.4701 43.3811 77.9127 42.7478C77.3554 42.1018 76.9944 41.2721 76.8297 40.2588H77.5897C77.8811 40.8414 78.2547 41.3291 78.7107 41.7218C79.1667 42.1018 79.6924 42.3868 80.2877 42.5768C80.8957 42.7668 81.5417 42.8618 82.2257 42.8618C82.9857 42.8618 83.5684 42.7224 83.9737 42.4438C84.3917 42.1524 84.6007 41.7281 84.6007 41.1708C84.6007 40.7781 84.4867 40.4678 84.2587 40.2398C84.0434 39.9991 83.7457 39.8218 83.3657 39.7078C82.9984 39.5811 82.5994 39.4861 82.1687 39.4228L80.8387 39.2328C79.8381 39.0934 78.9387 38.8591 78.1407 38.5298C77.3427 38.1878 76.7094 37.7318 76.2407 37.1618C75.7721 36.5791 75.5377 35.8508 75.5377 34.9768C75.5377 34.1028 75.7467 33.3871 76.1647 32.8298C76.5954 32.2598 77.1717 31.8418 77.8937 31.5758C78.6157 31.3098 79.4327 31.1768 80.3447 31.1768C81.2314 31.1768 82.0484 31.3161 82.7957 31.5948C83.5431 31.8734 84.1764 32.3231 84.6957 32.9438C85.2151 33.5518 85.5571 34.3498 85.7217 35.3378H85.0187C84.6514 34.5018 84.0814 33.8874 83.3087 33.4948C82.5487 33.0894 81.6937 32.8868 80.7437 32.8868C80.0217 32.8868 79.4517 33.0198 79.0337 33.2858C78.6157 33.5391 78.4067 33.9508 78.4067 34.5208C78.4067 34.8881 78.5081 35.1921 78.7107 35.4328C78.9261 35.6608 79.2047 35.8381 79.5467 35.9648C79.9014 36.0788 80.2814 36.1674 80.6867 36.2308L82.0167 36.4208C83.0681 36.5728 84.0054 36.8008 84.8287 37.1048C85.6521 37.4088 86.2981 37.8394 86.7667 38.3968C87.2481 38.9414 87.4887 39.6634 87.4887 40.5628C87.4887 41.4621 87.2861 42.2094 86.8807 42.8048C86.4754 43.4001 85.9054 43.8498 85.1707 44.1538C84.4487 44.4451 83.6001 44.5908 82.6247 44.5908ZM75.7277 44.3628V40.2588H76.8297L77.5517 41.7598V44.3628H75.7277ZM85.7217 35.3378L85.0567 33.8558V31.4048H86.8617V35.3378H85.7217ZM91.7545 37.9598C91.3112 37.9598 90.9122 37.8458 90.5575 37.6178C90.2155 37.3771 90.0445 37.0034 90.0445 36.4968C90.0445 36.0028 90.2535 35.5911 90.6715 35.2618C91.1022 34.9198 91.6595 34.6664 92.3435 34.5018C93.0275 34.3244 93.7495 34.2358 94.5095 34.2358C95.7762 34.2358 96.7515 34.4891 97.4355 34.9958C98.1195 35.5024 98.4552 36.2688 98.4425 37.2948L95.7065 36.9528C95.7065 36.4968 95.5418 36.1611 95.2125 35.9458C94.8958 35.7178 94.4525 35.6038 93.8825 35.6038C93.5152 35.6038 93.1605 35.6481 92.8185 35.7368C92.4892 35.8128 92.2105 35.9521 91.9825 36.1548C91.7672 36.3448 91.6342 36.6044 91.5835 36.9338L91.6215 35.6038C92.1155 35.6291 92.5082 35.7368 92.7995 35.9268C93.0908 36.1041 93.2302 36.3828 93.2175 36.7628C93.2048 37.1174 93.0718 37.4088 92.8185 37.6368C92.5652 37.8521 92.2105 37.9598 91.7545 37.9598ZM98.9745 44.5908C97.9992 44.5908 97.2582 44.3311 96.7515 43.8118C96.2448 43.2798 95.9915 42.5451 95.9915 41.6078V41.1898H95.6685V38.7958H95.5735L95.7065 37.8078V36.9528L98.4425 37.2948V41.8548C98.4425 42.1208 98.5058 42.3424 98.6325 42.5198C98.7718 42.6971 98.9745 42.7858 99.2405 42.7858C99.4938 42.7858 99.6838 42.6971 99.8105 42.5198C99.9498 42.3424 100.02 42.1208 100.02 41.8548V39.1188H101.863V41.6458C101.863 42.5578 101.622 43.2798 101.141 43.8118C100.659 44.3311 99.9372 44.5908 98.9745 44.5908ZM92.5525 44.5718C91.5645 44.5718 90.7602 44.3311 90.1395 43.8498C89.5188 43.3684 89.2085 42.7161 89.2085 41.8928C89.2085 41.2974 89.3352 40.8034 89.5885 40.4108C89.8418 40.0181 90.1965 39.7014 90.6525 39.4608C91.1212 39.2074 91.6532 39.0111 92.2485 38.8718L93.9775 38.4538C94.3448 38.3778 94.6552 38.2764 94.9085 38.1498C95.1745 38.0231 95.3708 37.8648 95.4975 37.6748C95.6368 37.4848 95.7065 37.2441 95.7065 36.9528L95.7445 38.7958H95.6685C95.5672 39.0238 95.4025 39.2074 95.1745 39.3468C94.9592 39.4861 94.6805 39.6064 94.3385 39.7078L93.8065 39.8598C93.5025 39.9484 93.2238 40.0561 92.9705 40.1828C92.7298 40.2968 92.5398 40.4424 92.4005 40.6198C92.2612 40.7844 92.1915 41.0061 92.1915 41.2848C92.1915 41.6774 92.3308 41.9751 92.6095 42.1778C92.9008 42.3804 93.2745 42.4818 93.7305 42.4818C94.0598 42.4818 94.3702 42.4121 94.6615 42.2728C94.9655 42.1334 95.2062 41.8991 95.3835 41.5698C95.5735 41.2404 95.6685 40.7971 95.6685 40.2398L96.3145 40.2968C96.3145 41.3228 96.1435 42.1524 95.8015 42.7858C95.4722 43.4064 95.0162 43.8624 94.4335 44.1538C93.8635 44.4324 93.2365 44.5718 92.5525 44.5718ZM102.841 44.3628V42.8428H104.247V32.2408H102.955V30.7208H107.173V42.8428H108.237V44.3628H102.841ZM109.795 44.3628V42.8428H110.84V37.8078C110.84 37.2758 110.688 36.8831 110.384 36.6298C110.093 36.3764 109.694 36.2498 109.187 36.2498C108.833 36.2498 108.503 36.3258 108.199 36.4778C107.895 36.6171 107.648 36.8514 107.458 37.1808C107.268 37.4974 107.173 37.9154 107.173 38.4348L106.888 38.4728C106.888 37.5861 106.996 36.8324 107.211 36.2118C107.439 35.5911 107.813 35.1161 108.332 34.7868C108.852 34.4574 109.555 34.2928 110.441 34.2928C111.417 34.2928 112.208 34.5651 112.816 35.1098C113.437 35.6544 113.747 36.5284 113.747 37.7318V42.8428H114.887V44.3628H109.795ZM118.9 37.9598C118.457 37.9598 118.058 37.8458 117.703 37.6178C117.361 37.3771 117.19 37.0034 117.19 36.4968C117.19 36.0028 117.399 35.5911 117.817 35.2618C118.248 34.9198 118.805 34.6664 119.489 34.5018C120.173 34.3244 120.895 34.2358 121.655 34.2358C122.922 34.2358 123.897 34.4891 124.581 34.9958C125.265 35.5024 125.601 36.2688 125.588 37.2948L122.852 36.9528C122.852 36.4968 122.687 36.1611 122.358 35.9458C122.041 35.7178 121.598 35.6038 121.028 35.6038C120.661 35.6038 120.306 35.6481 119.964 35.7368C119.635 35.8128 119.356 35.9521 119.128 36.1548C118.913 36.3448 118.78 36.6044 118.729 36.9338L118.767 35.6038C119.261 35.6291 119.654 35.7368 119.945 35.9268C120.236 36.1041 120.376 36.3828 120.363 36.7628C120.35 37.1174 120.217 37.4088 119.964 37.6368C119.711 37.8521 119.356 37.9598 118.9 37.9598ZM126.12 44.5908C125.145 44.5908 124.404 44.3311 123.897 43.8118C123.39 43.2798 123.137 42.5451 123.137 41.6078V41.1898H122.814V38.7958H122.719L122.852 37.8078V36.9528L125.588 37.2948V41.8548C125.588 42.1208 125.651 42.3424 125.778 42.5198C125.917 42.6971 126.12 42.7858 126.386 42.7858C126.639 42.7858 126.829 42.6971 126.956 42.5198C127.095 42.3424 127.165 42.1208 127.165 41.8548V39.1188H129.008V41.6458C129.008 42.5578 128.767 43.2798 128.286 43.8118C127.805 44.3311 127.083 44.5908 126.12 44.5908ZM119.698 44.5718C118.71 44.5718 117.906 44.3311 117.285 43.8498C116.664 43.3684 116.354 42.7161 116.354 41.8928C116.354 41.2974 116.481 40.8034 116.734 40.4108C116.987 40.0181 117.342 39.7014 117.798 39.4608C118.267 39.2074 118.799 39.0111 119.394 38.8718L121.123 38.4538C121.49 38.3778 121.801 38.2764 122.054 38.1498C122.32 38.0231 122.516 37.8648 122.643 37.6748C122.782 37.4848 122.852 37.2441 122.852 36.9528L122.89 38.7958H122.814C122.713 39.0238 122.548 39.2074 122.32 39.3468C122.105 39.4861 121.826 39.6064 121.484 39.7078L120.952 39.8598C120.648 39.9484 120.369 40.0561 120.116 40.1828C119.875 40.2968 119.685 40.4424 119.546 40.6198C119.407 40.7844 119.337 41.0061 119.337 41.2848C119.337 41.6774 119.476 41.9751 119.755 42.1778C120.046 42.3804 120.42 42.4818 120.876 42.4818C121.205 42.4818 121.516 42.4121 121.807 42.2728C122.111 42.1334 122.352 41.8991 122.529 41.5698C122.719 41.2404 122.814 40.7971 122.814 40.2398L123.46 40.2968C123.46 41.3228 123.289 42.1524 122.947 42.7858C122.618 43.4064 122.162 43.8624 121.579 44.1538C121.009 44.4324 120.382 44.5718 119.698 44.5718ZM137.078 44.5528C136.14 44.5528 135.374 44.3438 134.779 43.9258C134.183 43.5078 133.746 42.9124 133.468 42.1398C133.189 41.3671 133.05 40.4551 133.05 39.4038L133.24 39.3658C133.24 38.3018 133.366 37.3898 133.62 36.6298C133.873 35.8571 134.278 35.2618 134.836 34.8438C135.406 34.4258 136.159 34.2168 137.097 34.2168C137.996 34.2168 138.781 34.4194 139.453 34.8248C140.137 35.2301 140.669 35.8191 141.049 36.5918C141.441 37.3518 141.638 38.2891 141.638 39.4038C141.638 40.4931 141.441 41.4241 141.049 42.1968C140.669 42.9694 140.137 43.5584 139.453 43.9638C138.769 44.3564 137.977 44.5528 137.078 44.5528ZM136.033 42.6908C136.552 42.6908 136.989 42.5641 137.344 42.3108C137.711 42.0574 137.99 41.6838 138.18 41.1898C138.382 40.6958 138.484 40.0941 138.484 39.3848C138.484 38.6754 138.382 38.0801 138.18 37.5988C137.99 37.1048 137.711 36.7311 137.344 36.4778C136.989 36.2244 136.552 36.0978 136.033 36.0978C135.539 36.0978 135.108 36.2244 134.741 36.4778C134.373 36.7311 134.088 37.1048 133.886 37.5988C133.696 38.0801 133.601 38.6754 133.601 39.3848C133.601 40.0941 133.696 40.6958 133.886 41.1898C134.088 41.6838 134.373 42.0574 134.741 42.3108C135.108 42.5641 135.539 42.6908 136.033 42.6908ZM130.808 44.3628V32.2218H129.535V30.7208H133.753V37.2568L133.316 39.3848L133.525 42.0258V44.3628H130.808Z" fill="#F1B900"/>
<path d="M33.2149 5.584C29.0279 8.27569 25.4203 10.7457 25.2623 11.0307C24.999 11.4424 24.999 11.569 25.2623 11.7907C25.8943 12.2974 27.053 12.0124 28.4749 11.0624L29.9232 10.0807L34.6105 13.3424C43.9324 19.8341 45.4597 20.9741 45.3017 21.2591C45.1437 21.6075 41.1147 24.0775 40.7461 24.0775C40.5881 24.0775 39.2714 23.2858 37.7968 22.3041C35.1108 20.5625 34.0838 20.2774 33.9258 21.2908C33.8205 21.8925 34.7685 22.6841 38.0601 24.8058L39.9297 25.9775V37.2192C39.9297 43.3943 39.8771 48.461 39.7981 48.461C39.7454 48.461 37.9811 47.2576 35.9271 45.801C33.8468 44.3443 30.9239 42.2859 29.3966 41.2093C27.8693 40.1643 25.947 38.7709 25.1043 38.1692L23.5507 37.0292L23.735 32.6909C23.8403 30.3159 23.972 28.2892 24.0247 28.2258C24.051 28.1625 24.7357 28.5742 25.5256 29.1125C26.3156 29.6508 27.211 30.0942 27.5006 30.0942C28.1589 30.0942 28.4223 29.3658 28.0009 28.7325C27.4216 27.8775 17.4414 21.5441 17.1781 21.8608C16.9938 22.0825 17.0201 22.6208 17.2045 23.4441C17.3361 24.1408 17.4151 24.7425 17.3624 24.8375C17.3098 24.9008 16.9411 24.5841 16.5461 24.1725C15.8351 23.3491 2.69502 10.1124 0.983383 8.46569C0.456725 7.95902 4.01167 12.2657 8.85692 18.0291C13.7022 23.7925 17.9944 28.7325 18.3894 28.9858C19.0214 29.3975 19.1268 29.3975 19.4954 28.9542C19.9694 28.3842 20.0221 27.6242 19.6797 26.5158C19.3111 25.3442 19.5744 25.3125 20.9174 26.2625L22.155 27.1175L22.2867 32.8175L22.4184 38.4859L27.4216 42.0326C37.4545 49.1577 39.6401 50.646 40.2721 50.836C41.1147 51.0893 41.9837 50.646 46.4076 47.606C48.4089 46.2443 52.2272 43.616 54.8868 41.8426C57.5201 40.0376 59.8638 38.2642 60.0744 37.8842C60.4167 37.3459 60.4694 35.2559 60.4694 25.1858V13.0891L59.8901 12.4557C59.3371 11.854 46.8816 3.43066 43.6954 1.46731C42.9317 1.02397 41.9837 0.643967 41.5887 0.643967C41.1411 0.643967 37.7705 2.63898 33.2149 5.584ZM48.0666 6.56568C51.3319 8.78236 54.7815 11.094 55.7032 11.6957C56.6248 12.3291 57.4411 12.9941 57.4938 13.1524C57.5201 13.3424 56.4668 14.1657 55.1238 14.9891L52.7012 16.5408L45.0647 11.2524C40.8777 8.33902 37.3228 5.86901 37.2175 5.71067C36.9805 5.45734 41.1147 2.57565 41.7467 2.54398C41.931 2.54398 44.775 4.349 48.0666 6.56568ZM43.116 12.1074C47.461 15.0841 50.9106 17.6174 50.8052 17.7441C50.6999 17.8708 49.8836 18.4408 48.9883 19.0108L47.382 20.0558L39.7718 14.7674C35.5848 11.854 32.0562 9.35237 31.9509 9.2257C31.7929 9.0357 34.6632 6.72401 35.1372 6.66068C35.1898 6.66068 38.7711 9.09903 43.116 12.1074ZM58.8368 25.8825L58.7578 36.9026L52.7802 40.9876C49.4886 43.2359 46.8816 45.231 46.9606 45.3893C47.0396 45.5793 46.987 45.611 46.829 45.4843C46.671 45.3576 45.486 45.991 44.1957 46.8776C42.879 47.7326 41.773 48.461 41.6677 48.461C41.5887 48.461 41.5097 43.3943 41.5097 37.2192V25.9775L43.6954 24.6475C44.8803 23.8875 45.9337 23.2541 46.0653 23.1908C46.1706 23.1275 46.2496 24.7108 46.2496 26.7375C46.2496 29.9675 46.3023 30.4742 46.75 31.0125C47.4083 31.8042 48.1193 31.5825 50.6209 29.9042C53.7282 27.8142 53.6229 28.0675 53.6492 23.0008C53.6755 18.3774 53.7545 17.7441 54.2548 17.7441C54.4128 17.7124 55.4398 17.1108 56.5195 16.3507C57.5991 15.5591 58.5734 14.9257 58.7051 14.9257C58.8104 14.8941 58.8631 19.8341 58.8368 25.8825ZM51.9376 26.4525C51.8059 26.8642 48.5143 29.1442 48.0929 29.1442C47.935 29.1442 47.8296 27.6558 47.8296 25.5342V21.9241L49.8836 20.6574L51.9112 19.3591L51.9902 22.7475C52.0166 24.5841 52.0166 26.2625 51.9376 26.4525Z" fill="#F1B900"/>
<path d="M1.29094 1.22611C1.56842 1.5169 3.28377 2.93446 5.0748 4.35202C6.89105 5.76958 9.11092 7.58697 10.0695 8.35028C11.0029 9.11358 11.8858 9.6588 12.0623 9.5134C12.2137 9.36801 12.2641 9.40436 12.1885 9.5861C12.0119 10.0223 15.3921 13.0028 16.0732 13.0028C16.6282 13.0028 16.7291 11.6579 16.275 9.76784C16.1237 9.11358 16.048 8.49567 16.1237 8.38662C16.2246 8.27758 17.385 9.11358 18.7472 10.2767C26.4662 16.8193 30.6033 20.0179 31.0825 19.7635C31.5114 19.509 31.5366 18.3096 31.133 17.8007C30.0231 16.5649 15.7453 5.36976 15.5183 5.58785C15.3165 5.73324 15.2912 5.69689 15.3921 5.44245C15.6192 4.93359 14.3831 4.13393 13.8281 4.46107C13.5507 4.60646 13.5002 5.04263 13.6516 6.3148C13.7272 7.25984 13.8786 8.24123 13.9543 8.49567C14.0299 8.78645 13.9543 9.00454 13.8029 9.00454C13.6516 9.00454 10.7506 7.11445 7.34512 4.82454C3.93964 2.53463 1.06391 0.64455 0.963005 0.64455C0.862102 0.64455 1.01346 0.935331 1.29094 1.22611Z" fill="#F1B900"/>
<path d="M18.9239 15.3654C18.8483 15.6562 18.8483 16.0196 18.9239 16.2377C19.2014 16.8556 25.2052 21.3628 25.7853 21.3628C26.4917 21.3628 26.7187 20.4904 26.189 19.7998C25.3565 18.7457 20.2105 14.8202 19.6303 14.8202C19.3276 14.8202 18.9996 15.0746 18.9239 15.3654Z" fill="#F1B900"/>
<path d="M28.2322 25.6151C28.0557 25.6878 27.9043 26.0876 27.9043 26.4874C27.9043 26.9963 28.4593 27.5779 29.9224 28.632C32.117 30.2313 32.4954 30.3403 32.9242 29.577C33.3278 28.8864 32.7981 28.1594 30.6539 26.6328C28.8881 25.3243 28.762 25.288 28.2322 25.6151Z" fill="#F1B900"/>
</svg>
